#Comment line ignore any data following # character 
#Hierarchical Translation and Rotation (.htr) file 
[Header]	
#Header keywords are followed by a single value 
FileType HTR		#Single word string
DataType HTRS		#Translation followed by rotation and scale data
FileVersion 1		#integer
NumSegments 84		#integer
NumFrames 2		#integer
DataFrameRate 30		#integer, data frame rate in this file
EulerRotationOrder ZYX
CalibrationUnits mm
RotationUnits Degrees
GlobalAxisofGravity Y
BoneLengthAxis Y
ScaleFactor 1.00
[SegmentNames&Hierarchy]
#CHILD	PARENT
MASTER GLOBAL
root MASTER
chest root
L_mid_tent01 root
R_mid_tent01 root
spine01 root
Bip01_Neck chest
L_humerus chest
R_humerus chest
weapon_bone chest
Bip01_Head Bip01_Neck
eye_left_bone Bip01_Head
eye_right_bone Bip01_Head
L_forearm L_humerus
L_front_hand L_forearm
L_weapon_bone L_forearm
L_front_hand01_01 L_front_hand
L_front_hand02_01 L_front_hand
L_front_hand03_01 L_front_hand
L_front_hand01_02 L_front_hand01_01
L_front_hand02_02 L_front_hand02_01
L_front_hand03_02 L_front_hand03_01
R_forearm R_humerus
R_front_hand R_forearm
R_weapon_bone R_forearm
R_front_hand01_01 R_front_hand
R_front_hand02_01 R_front_hand
R_front_hand03_01 R_front_hand
R_front_hand01_02 R_front_hand01_01
R_front_hand02_02 R_front_hand02_01
R_front_hand03_02 R_front_hand03_01
null_rope01_connect L_mid_tent01
Rope1_Seg01 null_rope01_connect
Rope1_Seg02 Rope1_Seg01
Rope1_Seg03 Rope1_Seg02
Rope1_Seg04 Rope1_Seg03
Rope1_Seg05 Rope1_Seg04
Rope1_Seg06 Rope1_Seg05
Rope1_Seg07 Rope1_Seg06
Rope1_Seg09 Rope1_Seg07
L_mid_hand01 Rope1_Seg09
L_mid_hand02 Rope1_Seg09
L_mid_hand03 Rope1_Seg09
null_rope02_connect R_mid_tent01
Rope2_Seg01 null_rope02_connect
Rope2_Seg02 Rope2_Seg01
Rope2_Seg03 Rope2_Seg02
Rope2_Seg04 Rope2_Seg03
Rope2_Seg05 Rope2_Seg04
Rope2_Seg06 Rope2_Seg05
Rope2_Seg07 Rope2_Seg06
Rope2_Seg09 Rope2_Seg07
R_mid_hand01 Rope2_Seg09
R_mid_hand02 Rope2_Seg09
R_mid_hand03 Rope2_Seg09
spine02 spine01
spine03 spine02
pelvis spine03
null_rope03_connect pelvis
null_rope04_connect pelvis
Rope3_Seg01 null_rope03_connect
Rope3_Seg02 Rope3_Seg01
Rope3_Seg03 Rope3_Seg02
Rope3_Seg04 Rope3_Seg03
Rope3_Seg05 Rope3_Seg04
Rope3_Seg06 Rope3_Seg05
Rope3_Seg07 Rope3_Seg06
Rope3_Seg08 Rope3_Seg07
Rope3_Seg09 Rope3_Seg08
R_rear_hand01 Rope3_Seg09
R_rear_hand02 Rope3_Seg09
R_rear_hand03 Rope3_Seg09
Rope4_Seg01 null_rope04_connect
Rope4_Seg02 Rope4_Seg01
Rope4_Seg03 Rope4_Seg02
Rope4_Seg04 Rope4_Seg03
Rope4_Seg05 Rope4_Seg04
Rope4_Seg06 Rope4_Seg05
Rope4_Seg07 Rope4_Seg06
Rope4_Seg08 Rope4_Seg07
Rope4_Seg09 Rope4_Seg08
L_rear_hand01 Rope4_Seg09
L_rear_hand02 Rope4_Seg09
L_rear_hand03 Rope4_Seg09
[BasePosition]
#SegmentName Tx, Ty, Tz, Rx, Ry, Rz, BoneLength
MASTER 0.000000 0.000000 0.000000 -90.000000 0.000000 0.000000 10.000000 
root 0.000000 0.000000 0.000000 0.000000 0.000000 0.000000 10.000000 
chest 0.000000 0.000000 0.000000 0.000000 0.000000 0.000000 10.000000 
L_mid_tent01 0.000000 0.000000 0.000000 0.000000 0.000000 0.000000 10.000000 
R_mid_tent01 0.000000 0.000000 0.000000 0.000000 0.000000 0.000000 10.000000 
spine01 0.000000 0.000000 0.000000 0.000000 0.000000 0.000000 10.000000 
Bip01_Neck 0.000000 0.000000 0.000000 0.000000 0.000000 0.000000 10.000000 
L_humerus 0.000000 0.000000 0.000000 0.000000 0.000000 0.000000 10.000000 
R_humerus 0.000000 0.000000 0.000000 0.000000 0.000000 0.000000 10.000000 
weapon_bone 0.000000 0.000000 0.000000 0.000000 0.000000 0.000000 10.000000 
Bip01_Head 0.000000 0.000000 0.000000 0.000000 0.000000 0.000000 10.000000 
eye_left_bone 0.000000 0.000000 0.000000 0.000000 0.000000 0.000000 10.000000 
eye_right_bone 0.000000 0.000000 0.000000 0.000000 0.000000 0.000000 10.000000 
L_forearm 0.000000 0.000000 0.000000 0.000000 0.000000 0.000000 10.000000 
L_front_hand 0.000000 0.000000 0.000000 0.000000 0.000000 0.000000 10.000000 
L_weapon_bone 0.000000 0.000000 0.000000 0.000000 0.000000 0.000000 10.000000 
L_front_hand01_01 0.000000 0.000000 0.000000 0.000000 0.000000 0.000000 10.000000 
L_front_hand02_01 0.000000 0.000000 0.000000 0.000000 0.000000 0.000000 10.000000 
L_front_hand03_01 0.000000 0.000000 0.000000 0.000000 0.000000 0.000000 10.000000 
L_front_hand01_02 0.000000 0.000000 0.000000 0.000000 0.000000 0.000000 10.000000 
L_front_hand02_02 0.000000 0.000000 0.000000 0.000000 0.000000 0.000000 10.000000 
L_front_hand03_02 0.000000 0.000000 0.000000 0.000000 0.000000 0.000000 10.000000 
R_forearm 0.000000 0.000000 0.000000 0.000000 0.000000 0.000000 10.000000 
R_front_hand 0.000000 0.000000 0.000000 0.000000 0.000000 0.000000 10.000000 
R_weapon_bone 0.000000 0.000000 0.000000 0.000000 0.000000 0.000000 10.000000 
R_front_hand01_01 0.000000 0.000000 0.000000 0.000000 0.000000 0.000000 10.000000 
R_front_hand02_01 0.000000 0.000000 0.000000 0.000000 0.000000 0.000000 10.000000 
R_front_hand03_01 0.000000 0.000000 0.000000 0.000000 0.000000 0.000000 10.000000 
R_front_hand01_02 0.000000 0.000000 0.000000 0.000000 0.000000 0.000000 10.000000 
R_front_hand02_02 0.000000 0.000000 0.000000 0.000000 0.000000 0.000000 10.000000 
R_front_hand03_02 0.000000 0.000000 0.000000 0.000000 0.000000 0.000000 10.000000 
null_rope01_connect 0.000000 0.000000 0.000000 0.000000 0.000000 0.000000 10.000000 
Rope1_Seg01 0.000000 0.000000 0.000000 0.000000 0.000000 0.000000 10.000000 
Rope1_Seg02 0.000000 0.000000 0.000000 0.000000 0.000000 0.000000 10.000000 
Rope1_Seg03 0.000000 0.000000 0.000000 0.000000 0.000000 0.000000 10.000000 
Rope1_Seg04 0.000000 0.000000 0.000000 0.000000 0.000000 0.000000 10.000000 
Rope1_Seg05 0.000000 0.000000 0.000000 0.000000 0.000000 0.000000 10.000000 
Rope1_Seg06 0.000000 0.000000 0.000000 0.000000 0.000000 0.000000 10.000000 
Rope1_Seg07 0.000000 0.000000 0.000000 0.000000 0.000000 0.000000 10.000000 
Rope1_Seg09 0.000000 0.000000 0.000000 0.000000 0.000000 0.000000 10.000000 
L_mid_hand01 0.000000 0.000000 0.000000 0.000000 0.000000 0.000000 10.000000 
L_mid_hand02 0.000000 0.000000 0.000000 0.000000 0.000000 0.000000 10.000000 
L_mid_hand03 0.000000 0.000000 0.000000 0.000000 0.000000 0.000000 10.000000 
null_rope02_connect 0.000000 0.000000 0.000000 0.000000 0.000000 0.000000 10.000000 
Rope2_Seg01 0.000000 0.000000 0.000000 0.000000 0.000000 0.000000 10.000000 
Rope2_Seg02 0.000000 0.000000 0.000000 0.000000 0.000000 0.000000 10.000000 
Rope2_Seg03 0.000000 0.000000 0.000000 0.000000 0.000000 0.000000 10.000000 
Rope2_Seg04 0.000000 0.000000 0.000000 0.000000 0.000000 0.000000 10.000000 
Rope2_Seg05 0.000000 0.000000 0.000000 0.000000 0.000000 0.000000 10.000000 
Rope2_Seg06 0.000000 0.000000 0.000000 0.000000 0.000000 0.000000 10.000000 
Rope2_Seg07 0.000000 0.000000 0.000000 0.000000 0.000000 0.000000 10.000000 
Rope2_Seg09 0.000000 0.000000 0.000000 0.000000 0.000000 0.000000 10.000000 
R_mid_hand01 0.000000 0.000000 0.000000 0.000000 0.000000 0.000000 10.000000 
R_mid_hand02 0.000000 0.000000 0.000000 0.000000 0.000000 0.000000 10.000000 
R_mid_hand03 0.000000 0.000000 0.000000 0.000000 0.000000 0.000000 10.000000 
spine02 0.000000 0.000000 0.000000 0.000000 0.000000 0.000000 10.000000 
spine03 0.000000 0.000000 0.000000 0.000000 0.000000 0.000000 10.000000 
pelvis 0.000000 0.000000 0.000000 0.000000 0.000000 0.000000 10.000000 
null_rope03_connect 0.000000 0.000000 0.000000 0.000000 0.000000 0.000000 10.000000 
null_rope04_connect 0.000000 0.000000 0.000000 0.000000 0.000000 0.000000 10.000000 
Rope3_Seg01 0.000000 0.000000 0.000000 0.000000 0.000000 0.000000 10.000000 
Rope3_Seg02 0.000000 0.000000 0.000000 0.000000 0.000000 0.000000 10.000000 
Rope3_Seg03 0.000000 0.000000 0.000000 0.000000 0.000000 0.000000 10.000000 
Rope3_Seg04 0.000000 0.000000 0.000000 0.000000 0.000000 0.000000 10.000000 
Rope3_Seg05 0.000000 0.000000 0.000000 0.000000 0.000000 0.000000 10.000000 
Rope3_Seg06 0.000000 0.000000 0.000000 0.000000 0.000000 0.000000 10.000000 
Rope3_Seg07 0.000000 0.000000 0.000000 0.000000 0.000000 0.000000 10.000000 
Rope3_Seg08 0.000000 0.000000 0.000000 0.000000 0.000000 0.000000 10.000000 
Rope3_Seg09 0.000000 0.000000 0.000000 0.000000 0.000000 0.000000 10.000000 
R_rear_hand01 0.000000 0.000000 0.000000 0.000000 0.000000 0.000000 10.000000 
R_rear_hand02 0.000000 0.000000 0.000000 0.000000 0.000000 0.000000 10.000000 
R_rear_hand03 0.000000 0.000000 0.000000 0.000000 0.000000 0.000000 10.000000 
Rope4_Seg01 0.000000 0.000000 0.000000 0.000000 0.000000 0.000000 10.000000 
Rope4_Seg02 0.000000 0.000000 0.000000 0.000000 0.000000 0.000000 10.000000 
Rope4_Seg03 0.000000 0.000000 0.000000 0.000000 0.000000 0.000000 10.000000 
Rope4_Seg04 0.000000 0.000000 0.000000 0.000000 0.000000 0.000000 10.000000 
Rope4_Seg05 0.000000 0.000000 0.000000 0.000000 0.000000 0.000000 10.000000 
Rope4_Seg06 0.000000 0.000000 0.000000 0.000000 0.000000 0.000000 10.000000 
Rope4_Seg07 0.000000 0.000000 0.000000 0.000000 0.000000 0.000000 10.000000 
Rope4_Seg08 0.000000 0.000000 0.000000 0.000000 0.000000 0.000000 10.000000 
Rope4_Seg09 0.000000 0.000000 0.000000 0.000000 0.000000 0.000000 10.000000 
L_rear_hand01 0.000000 0.000000 0.000000 0.000000 0.000000 0.000000 10.000000 
L_rear_hand02 0.000000 0.000000 0.000000 0.000000 0.000000 0.000000 10.000000 
L_rear_hand03 0.000000 0.000000 0.000000 0.000000 0.000000 0.000000 10.000000 
#Beginning of Data. Separated by tabs
#Fr	Tx	Ty	Tz	Rx	Ry	Rz	SF
[MASTER]
35 0.000000 0.000000 0.000000 0.001660 0.001660 0.001660 0.000000
36 0.000000 0.000000 0.000000 0.001660 0.001660 0.001660 0.000000
[root]
35 2.638525 9.161232 1448.585449 -90.545670 -11.808451 -88.192619 1448.616821
36 -11.503470 9.316373 1448.387207 -91.408386 -11.637320 -88.812675 1448.462769
[chest]
35 -84.512650 -34.090519 0.000000 -1.389247 0.268921 166.645157 91.129311
36 -84.512650 -34.090519 0.000000 -1.793507 0.122032 167.288101 91.129311
[L_mid_tent01]
35 27.299091 22.179214 -249.918640 -20.145214 14.538715 16.789177 252.381638
36 27.299086 22.179237 -249.918640 -20.425663 13.285333 14.876420 252.381638
[R_mid_tent01]
35 23.228794 24.509907 226.238495 -167.330124 -19.763678 28.562780 228.744751
36 23.228794 24.509907 226.238495 -166.238144 -18.878599 26.291950 228.744751
[spine01]
35 -0.361383 -0.195265 0.000000 0.001944 0.001315 21.858707 0.410763
36 -0.361383 -0.195265 0.000000 0.001945 0.001313 21.955280 0.410763
[Bip01_Neck]
35 165.484543 71.581718 0.000119 176.643677 -1.657967 43.431911 180.302734
36 165.484543 71.581718 0.000119 176.643677 -1.657967 43.431911 180.302734
[L_humerus]
35 -13.983130 -135.272980 -120.471481 10.051054 75.237282 94.631668 181.680161
36 -13.983130 -135.272980 -120.471481 0.987981 72.085190 88.381737 181.680161
[R_humerus]
35 -13.983309 -135.273102 125.287651 20.604185 -78.583023 70.161636 184.909012
36 -13.983309 -135.273102 125.287651 24.944983 -74.138618 68.272804 184.909012
[weapon_bone]
35 235.964890 -300.705902 0.000000 0.000000 -89.951546 -128.212341 382.234833
36 235.964890 -300.705902 0.000000 0.000000 -89.951546 -128.212341 382.234833
[Bip01_Head]
35 213.444138 185.715561 11.776936 4.962491 2.797846 -43.898746 283.173737
36 213.444122 185.715561 11.776936 4.962491 2.797846 -43.898746 283.173737
[eye_left_bone]
35 -24.626970 125.451866 -64.772606 0.000000 -90.000000 -99.840431 143.318359
36 -24.626970 125.451866 -64.772606 0.000000 -90.000000 -99.840431 143.318359
[eye_right_bone]
35 -24.626970 125.451866 64.327362 0.000000 -89.965736 80.156380 143.117676
36 -24.626970 125.451866 64.327362 0.000000 -89.965736 80.156380 143.117676
[L_forearm]
35 322.776093 0.000000 -0.000119 0.000571 -0.002277 -118.148544 322.776093
36 322.776093 0.000000 -0.000119 0.000476 -0.002298 -113.412926 322.776093
[L_front_hand]
35 241.149185 -0.042021 -3.300071 149.893951 -1.837326 -27.423067 241.171753
36 241.149185 -0.042021 -3.300071 149.893951 -1.837326 -27.423067 241.171753
[L_weapon_bone]
35 156.183838 0.000000 0.000000 0.000014 0.000007 0.000001 156.183838
36 156.183838 0.000000 0.000000 0.000014 0.000007 0.000001 156.183838
[L_front_hand01_01]
35 86.095154 20.947098 -0.655860 -0.366594 -0.477154 75.385574 88.609184
36 86.095154 20.947098 -0.655860 -0.366594 -0.477154 75.385574 88.609184
[L_front_hand02_01]
35 86.935165 -11.437475 24.513514 154.399796 -59.883835 -61.369587 91.046425
36 86.935165 -11.437475 24.513514 154.399796 -59.883835 -61.369587 91.046425
[L_front_hand03_01]
35 86.637497 -14.123976 -20.424902 -153.913849 58.118122 -62.702866 90.126129
36 86.637497 -14.123976 -20.424902 -153.913849 58.118122 -62.702866 90.126129
[L_front_hand01_02]
35 71.020905 -0.000179 0.000030 0.000334 -0.002323 -106.379684 71.020905
36 71.020905 -0.000179 0.000030 0.000334 -0.002323 -106.379684 71.020905
[L_front_hand02_02]
35 71.020927 -0.000119 0.000060 0.000334 -0.002323 -106.379684 71.020927
36 71.020927 -0.000119 0.000060 0.000334 -0.002323 -106.379684 71.020927
[L_front_hand03_02]
35 71.020905 -0.000060 0.000060 0.000334 -0.002323 -106.379684 71.020905
36 71.020905 -0.000060 0.000060 0.000334 -0.002323 -106.379684 71.020905
[R_forearm]
35 322.776428 -0.000060 0.000030 0.191591 0.087882 -115.676086 322.776428
36 322.776428 -0.000060 0.000030 0.195972 0.073967 -111.496849 322.776428
[R_front_hand]
35 238.847015 -0.006795 2.210259 -8.879457 -10.642941 -26.315098 238.857239
36 238.847015 -0.006795 2.210259 -8.879457 -10.642941 -26.315098 238.857239
[R_weapon_bone]
35 155.664093 0.002503 -0.000030 0.003487 0.001180 -90.988930 155.664078
36 155.664093 0.002503 -0.000030 0.003487 0.001180 -90.988930 155.664078
[R_front_hand01_01]
35 87.624611 14.231146 22.918642 -154.633499 -59.950619 61.746044 91.683487
36 87.624611 14.231146 22.918642 -154.633499 -59.950619 61.746044 91.683487
[R_front_hand02_01]
35 89.356956 14.367283 -19.491137 154.602661 58.302849 63.744389 92.579636
36 89.356956 14.367283 -19.491137 154.602661 58.302849 63.744389 92.579636
[R_front_hand03_01]
35 87.286232 -22.307278 -0.143439 0.162155 -0.423168 -75.767921 90.091743
36 87.286232 -22.307278 -0.143439 0.162155 -0.423168 -75.767921 90.091743
[R_front_hand01_02]
35 71.020905 0.000060 0.000119 0.002323 -0.000334 106.381714 71.020905
36 71.020905 0.000060 0.000119 0.002323 -0.000334 106.381714 71.020905
[R_front_hand02_02]
35 71.020844 -0.000030 -0.000119 0.002323 -0.000334 106.381714 71.020836
36 71.020844 -0.000030 -0.000119 0.002323 -0.000334 106.381714 71.020836
[R_front_hand03_02]
35 71.020905 0.000000 0.000030 0.002323 -0.000334 106.381714 71.020905
36 71.020905 0.000000 0.000030 0.002323 -0.000334 106.381714 71.020905
[null_rope01_connect]
35 328.732483 0.000000 -0.000238 -154.427429 -65.640266 -122.764526 328.732483
36 328.732483 0.000000 -0.000238 -154.673019 -64.964989 -120.646004 328.732483
[Rope1_Seg01]
35 0.000070 -0.000040 0.000144 46.642586 -1.063487 -119.307495 0.000165
36 0.000073 -0.000039 0.000148 51.778522 -2.808161 -121.846832 0.000170
[Rope1_Seg02]
35 139.999863 -0.000179 0.000000 -15.221211 6.499374 3.181159 139.999863
36 139.999863 -0.000179 0.000000 -11.594459 5.749484 1.941153 139.999863
[Rope1_Seg03]
35 139.999924 0.000060 -0.000060 -13.724401 4.930799 4.125911 139.999924
36 139.999924 0.000060 -0.000060 -12.636711 5.391039 2.672519 139.999924
[Rope1_Seg04]
35 139.999924 -0.000060 -0.000119 -13.500497 4.143165 5.868177 139.999924
36 139.999924 -0.000060 -0.000119 -14.952941 5.432545 4.473345 139.999924
[Rope1_Seg05]
35 139.999832 0.000119 -0.000060 -10.363516 1.965175 7.482831 139.999832
36 139.999832 0.000119 -0.000060 -10.446542 1.465952 7.298091 139.999832
[Rope1_Seg06]
35 139.999954 0.000119 -0.000060 -3.999698 0.228022 3.928689 139.999954
36 139.999954 0.000119 -0.000060 -3.421081 -0.257944 3.572425 139.999954
[Rope1_Seg07]
35 139.999985 0.000060 0.000000 -2.025952 0.031238 2.232101 139.999985
36 139.999985 0.000060 0.000000 -1.873989 -0.049877 1.991007 139.999985
[Rope1_Seg09]
35 121.602913 0.000119 -0.000089 -89.793175 -1.359789 0.847147 121.602913
36 121.602913 0.000119 -0.000089 -89.793175 -1.359789 0.847147 121.602913
[L_mid_hand01]
35 103.859421 1.038730 8.195221 109.056198 -40.604698 -13.201401 104.187431
36 103.859421 1.038730 8.195221 109.056198 -40.604698 -13.201401 104.187431
[L_mid_hand02]
35 105.572853 -4.139662 -10.864139 -146.713593 31.476528 -37.902313 106.211075
36 105.572853 -4.139662 -10.864139 -146.713593 31.476528 -37.902313 106.211075
[L_mid_hand03]
35 104.641464 17.579376 -3.913581 -14.267233 12.322316 43.898396 106.179977
36 104.641464 17.579376 -3.913581 -14.267233 12.322316 43.898396 106.179977
[null_rope02_connect]
35 328.732849 0.000179 -0.000119 -136.648895 65.940140 -27.342299 328.732849
36 328.732849 0.000179 -0.000119 -138.026855 67.262253 -30.760933 328.732849
[Rope2_Seg01]
35 0.000088 0.000112 0.000006 36.672287 -1.915769 -47.304649 0.000143
36 0.000092 0.000113 0.000003 35.171314 -0.200834 -46.388069 0.000146
[Rope2_Seg02]
35 139.999741 -0.000060 -0.000119 20.831604 -2.970104 -7.707007 139.999756
36 139.999741 -0.000060 -0.000119 25.593714 -4.791556 -8.767696 139.999756
[Rope2_Seg03]
35 140.000107 0.000030 0.000000 6.776103 -0.106334 -2.863586 140.000107
36 140.000107 0.000030 0.000000 8.678595 -2.175752 -3.085669 140.000107
[Rope2_Seg04]
35 139.999802 0.000000 -0.000060 13.370950 -6.688783 -4.000854 139.999802
36 139.999802 0.000000 -0.000060 11.574073 -8.639969 -3.193796 139.999802
[Rope2_Seg05]
35 139.999985 -0.000060 0.000119 9.977928 -13.869827 -1.835070 139.999985
36 139.999985 -0.000060 0.000119 6.756139 -12.739549 -0.469255 139.999985
[Rope2_Seg06]
35 139.999893 -0.000030 -0.000119 2.762280 -7.231557 0.233557 139.999893
36 139.999893 -0.000030 -0.000119 1.940402 -6.137025 0.422708 139.999893
[Rope2_Seg07]
35 139.999893 0.000060 -0.000060 1.161183 -3.928657 0.243918 139.999893
36 139.999893 0.000060 -0.000060 0.868058 -3.448467 0.311997 139.999893
[Rope2_Seg09]
35 121.338966 0.000089 -0.000060 33.793236 -1.359788 -0.847141 121.338966
36 121.338966 0.000089 -0.000060 33.793236 -1.359788 -0.847141 121.338966
[R_mid_hand01]
35 104.680779 11.144459 -10.335981 -37.204079 31.906813 37.576260 105.778534
36 104.680779 11.144459 -10.335981 -37.204079 31.906813 37.576260 105.778534
[R_mid_hand02]
35 104.070427 2.443552 8.231699 70.367462 -42.427391 14.067809 104.424065
36 104.070427 2.443552 8.231699 70.367462 -42.427391 14.067809 104.424065
[R_mid_hand03]
35 106.028137 -11.221827 -5.996406 -169.893616 12.226661 -47.211018 106.788818
36 106.028137 -11.221827 -5.996406 -169.893616 12.226661 -47.211018 106.788818
[spine02]
35 129.756927 0.001550 0.000119 0.317554 -4.049014 -12.324321 129.756927
36 129.756927 0.001550 0.000119 0.338814 -4.046960 -12.619695 129.756927
[spine03]
35 78.614090 0.081908 -4.899003 1.870251 3.844285 16.107443 78.766632
36 78.614098 0.081848 -4.899004 1.883384 3.837807 16.290251 78.766640
[pelvis]
35 169.435242 0.051022 0.000000 -0.057333 -0.180849 13.345136 169.435257
36 169.435242 0.051022 0.000000 -0.058900 -0.180542 13.716541 169.435257
[null_rope03_connect]
35 -1.257226 -2.466202 137.391083 72.758736 -88.157509 -9.931127 137.418976
36 -1.257226 -2.466202 137.391083 105.806091 -88.990891 -43.492405 137.418976
[null_rope04_connect]
35 -1.259640 -2.480268 -137.844437 72.758736 -88.157509 -9.931127 137.872513
36 -1.259640 -2.480268 -137.844437 105.806091 -88.990891 -43.492405 137.872513
[Rope3_Seg01]
35 0.000010 0.000038 -0.000114 -133.822617 19.655092 -85.346039 0.000121
36 0.000010 0.000038 -0.000114 -134.545578 21.720224 -86.198051 0.000121
[Rope3_Seg02]
35 139.999924 -0.000119 0.000060 0.068981 -2.158692 -2.784833 139.999924
36 139.999924 -0.000119 0.000060 0.093378 -2.162967 -3.022806 139.999924
[Rope3_Seg03]
35 139.999924 -0.000119 0.000119 0.076460 -2.692902 -3.181508 139.999924
36 139.999924 -0.000119 0.000119 0.120785 -2.726123 -3.756732 139.999924
[Rope3_Seg04]
35 139.999924 0.000119 0.000000 0.139005 -4.626912 -4.623306 139.999924
36 139.999924 0.000119 0.000000 0.155419 -3.873442 -5.275630 139.999924
[Rope3_Seg05]
35 139.999924 -0.000238 0.000060 0.118668 2.632641 0.355670 139.999924
36 139.999924 -0.000238 0.000060 0.216168 2.558720 3.177907 139.999924
[Rope3_Seg06]
35 139.999893 -0.000119 -0.000060 0.583894 4.290111 2.196401 139.999893
36 139.999893 -0.000119 -0.000060 0.601609 3.532293 4.519239 139.999893
[Rope3_Seg07]
35 139.999771 0.000060 -0.000119 0.597669 1.546881 0.548883 139.999771
36 139.999771 0.000060 -0.000119 0.554913 1.329230 1.640378 139.999771
[Rope3_Seg08]
35 139.999985 -0.000060 0.000000 0.597721 0.934783 0.313196 139.999985
36 139.999985 -0.000060 0.000000 0.567936 0.837471 1.009854 139.999985
[Rope3_Seg09]
35 90.185997 -0.000179 -0.000060 89.793228 -1.359877 -0.847183 90.185997
36 90.185997 -0.000179 -0.000060 89.793228 -1.359877 -0.847183 90.185997
[R_rear_hand01]
35 103.366196 -6.073594 -10.757982 -164.755127 19.627697 -40.352161 104.101845
36 103.366196 -6.073594 -10.757982 -164.755127 19.627697 -40.352161 104.101845
[R_rear_hand02]
35 100.509819 12.039542 -7.992327 -30.792652 24.782448 38.141541 101.543350
36 100.509819 12.039542 -7.992327 -30.792652 24.782448 38.141541 101.543350
[R_rear_hand03]
35 101.539970 5.215704 5.435467 82.448349 -41.048256 8.840378 101.819031
36 101.539970 5.215704 5.435467 82.448349 -41.048256 8.840378 101.819031
[Rope4_Seg01]
35 -0.000010 -0.000004 -0.000153 42.013378 20.238670 -123.632599 0.000153
36 -0.000010 -0.000002 -0.000153 40.016365 20.679331 -127.812454 0.000153
[Rope4_Seg02]
35 139.999985 0.000060 0.000119 0.753038 5.741437 5.488689 139.999985
36 139.999985 0.000060 0.000119 0.943864 6.578311 5.859544 139.999985
[Rope4_Seg03]
35 139.999924 0.000000 -0.000238 0.757626 9.254424 8.769703 139.999924
36 139.999924 0.000000 -0.000238 1.045810 10.670496 9.398605 139.999924
[Rope4_Seg04]
35 139.999985 0.000000 0.000119 0.120532 24.732960 26.417109 139.999985
36 139.999985 0.000000 0.000119 0.851465 26.045492 26.506516 139.999985
[Rope4_Seg05]
35 139.999802 -0.000060 -0.000119 -3.162046 6.716472 6.987259 139.999802
36 139.999802 -0.000060 -0.000119 -3.780793 9.023938 8.617167 139.999802
[Rope4_Seg06]
35 139.999924 0.000000 0.000060 17.649008 -21.541981 -35.384438 139.999924
36 139.999924 0.000000 0.000060 17.168417 -18.842062 -31.560497 139.999924
[Rope4_Seg07]
35 139.999802 0.000000 0.000000 1.670002 -11.317090 -11.704778 139.999802
36 139.999802 0.000000 0.000000 2.821650 -12.984615 -13.573509 139.999802
[Rope4_Seg08]
35 139.999924 0.000000 0.000119 -1.550627 -4.601690 -4.639984 139.999924
36 139.999924 0.000000 0.000119 -1.334100 -5.009280 -5.031028 139.999924
[Rope4_Seg09]
35 90.185791 0.000060 0.000060 -135.617828 2.228885 0.850567 90.185791
36 90.185791 0.000060 0.000060 -135.617828 2.228885 0.850567 90.185791
[L_rear_hand01]
35 101.696655 -8.392275 -7.654577 -31.684452 -23.583008 144.025742 102.329041
36 101.696655 -8.392275 -7.654577 -31.684452 -23.583008 144.025742 102.329041
[L_rear_hand02]
35 102.726799 -1.568258 5.773216 82.701553 38.753956 171.553619 102.900848
36 102.726799 -1.568258 5.773216 82.701553 38.753956 171.553619 102.900848
[L_rear_hand03]
35 104.552910 9.721220 -10.420293 -163.975403 -19.004421 -142.009338 105.519653
36 104.552910 9.721220 -10.420293 -163.975403 -19.004421 -142.009338 105.519653
